<svg xmlns="http://www.w3.org/2000/svg" width="23.384" height="18.708" viewBox="0 0 23.384 18.708">
  <path id="Icon_awesome-crown" data-name="Icon awesome-crown" d="M19.292,16.369H4.092a.586.586,0,0,0-.585.585v1.169a.586.586,0,0,0,.585.585h15.2a.586.586,0,0,0,.585-.585V16.954A.586.586,0,0,0,19.292,16.369ZM21.631,4.677a1.754,1.754,0,0,0-1.754,1.754,1.718,1.718,0,0,0,.161.723L17.392,8.74a1.168,1.168,0,0,1-1.615-.424L12.8,3.106a1.754,1.754,0,1,0-2.214,0L7.607,8.316a1.168,1.168,0,0,1-1.615.424L3.351,7.154a1.753,1.753,0,1,0-1.6,1.03,1.791,1.791,0,0,0,.281-.029L4.677,15.2H18.708l2.642-7.045a1.791,1.791,0,0,0,.281.029,1.754,1.754,0,0,0,0-3.508Z" fill="#efff00"/>
</svg>
